<?xml version="1.0" encoding="utf-8"?>
<!-- Generator: Adobe Illustrator 26.4.1, SVG Export Plug-In . SVG Version: 6.00 Build 0)  -->
<svg version="1.1" id="Layer_1" xmlns="http://www.w3.org/2000/svg" xmlns:xlink="http://www.w3.org/1999/xlink" x="0px" y="0px"
	 viewBox="0 0 2500 1057" style="enable-background:new 0 0 2500 1057;" xml:space="preserve">
<style type="text/css">
	.st0{fill:#FFFFFF;}
</style>
<g>
	<path class="st0" d="M1636.4,603.4c-1.6,35.9,20.7,60.2,55.4,61.9c26.4,1.3,49.2-5.5,67.3-26c8.2-9.3,19.8-10.7,31.1-5.5
		c22,10.2,27.9,27,16.6,48.7c-10.5,20.3-28.2,33-48.8,40.7c-52,19.4-102.7,18.6-148.9-15.6c-26.5-19.7-39.6-48.3-46-79.9
		c-9.4-46.4-8.3-92.3,9.3-136.8c22.4-56.4,73.3-87.5,139-81.5c55.5,5,94.1,43.1,104.1,105.2c3.4,21.2,5.2,42.5,0.2,63.7
		c-4.2,17.8-13.4,25.1-31.8,25.1c-45.9,0.1-91.8,0-137.7,0C1643,603.4,1640,603.4,1636.4,603.4z M1741.7,542.1
		c-1.1-22.6-2.2-45.1-23.7-57.6c-18.3-10.6-38.2-8.4-56,2c-20.8,12.1-25.1,32.9-26.2,55.6C1671.3,542.1,1705.9,542.1,1741.7,542.1z"
		/>
	<path class="st0" d="M1420.6,600.3c7.1-19.1,13.5-36.4,19.9-53.8c12.7-34.5,25.3-69.1,38.1-103.5c1.7-4.5,3.8-9,6.5-13.1
		c8.5-12.9,20-17.9,34.5-14.5c14.8,3.5,27.4,11,30.1,27.3c1.2,7.2-0.3,15.5-3,22.4c-19.7,50.9-40,101.5-60.1,152.2
		c-10.5,26.5-20.9,53.1-31.7,79.6c-2.5,6.2-5.6,12.2-9.4,17.7c-14.4,20.7-41.5,20.5-54.3-1.1c-7.2-12.1-12.1-25.5-17.3-38.6
		c-27.7-68.7-55.2-137.5-82.5-206.3c-2.5-6.3-4.2-13.5-4-20.2c0.3-16.4,9.4-27.6,24.2-32.1c15.5-4.7,34.2,0.1,42.9,11.7
		c3.3,4.5,5.9,9.7,7.8,14.9c18.4,49.7,36.7,99.4,55,149.2C1418.3,594.2,1419.1,596.3,1420.6,600.3z"/>
	<path class="st0" d="M1117.8,514.1c0,60.8,0,121.6,0,182.4c0,18.3-7.6,28.2-25.6,31.8c-12.5,2.4-25.1,2.3-37-3.5
		c-10.2-5-15.6-12.9-15.6-24.5c0.1-124.2,0-248.3,0.1-372.5c0-18.3,8-28.1,26-30.5c9.8-1.3,20.1-1,29.8,0.7
		c14.5,2.5,22.2,13.6,22.2,29.1c0,56.2,0,112.3,0,168.5C1117.8,501.7,1117.8,507.9,1117.8,514.1z"/>
	<path class="st0" d="M1173.2,572c0-38.9,0.2-77.8-0.1-116.8c-0.1-15.9,3.8-29.1,19.5-36.2c16.7-7.5,33.1-6.6,47.2,4.9
		c5.4,4.4,8.1,12.6,10.9,19.5c1.5,3.6,0.9,8.1,0.9,12.2c0,78.4,0,156.7,0,235.1c0,17.9-7.8,30.2-22.5,36
		c-16.1,6.3-35.9,2.5-46.8-8.8c-6.4-6.7-9.2-14.6-9.2-23.8C1173.3,653.4,1173.2,612.7,1173.2,572z"/>
	<path class="st0" d="M622.1,605.6c-54.6-68.3-51.2-168.6,6-219.9c5.6,11.2,13,20.9,26,22.8c6.2,0.9,13.7-0.1,19.1-3
		c15.4-8.1,16.8-24.9,5.2-48.3c64.5-23,157.9,15.7,194.2,106.3c-5.2-6.4-9-11.9-13.6-16.7c-24.3-25.3-54.9-34-89-33.6
		c-69.7,0.7-139.4,53.6-155.7,118.8C608.1,557.4,610.2,581.9,622.1,605.6z"/>
	<path class="st0" d="M857.4,588.1c46.9-33.9,56.9-81.3,43.8-134.6c-13.9-56.7-47.6-98.2-103.3-119.1c-27.1-10.2-54.5-9.7-81,3.4
		c-0.9,0.4-1.9,0.8-2.8,1.1c-0.2,0.1-0.4-0.2-0.7-0.3c63.9-52.3,166.7-53.3,220.1,6.3c-11.2,5.2-20.5,12.7-22.7,25.2
		c-1.1,6.1-0.2,13.7,2.6,19.2c8,16,25.1,17.6,48.6,5.9C986.8,465.4,938.9,558.3,857.4,588.1z"/>
	<path class="st0" d="M975,420.5c56.4,70,52.6,171.5-4.6,222.4c-5.6-12-13.9-21.5-27.4-23.2c-5.9-0.7-13.1,0.8-18.3,3.8
		c-14.7,8.5-16,26.3-4.5,47.8c-63.9,23.9-159.2-16.7-193-104.7c9.3,14,20.9,25.7,35.7,33.7c34.7,18.8,71.1,19.9,107.8,8.1
		c53.2-17,92.4-49.9,111.2-104c9.3-26.7,8.1-53.1-4.6-78.7C976.7,424.7,976.3,423.6,975,420.5z"/>
	<path class="st0" d="M665.7,683.9c21.4-13.7,28.5-30,19.6-45.1c-8.8-15-27-17-48.4-5.3c-24-61.6,15.1-159.2,104.8-193
		c-18.6,12.1-32.3,28.3-40.3,49c-14.7,38.2-11.4,75.9,4.7,112.6c20.3,46.3,52.8,80,102.5,94.7c25.5,7.5,50.4,5.6,74.3-6.5
		c0.8-0.4,1.7-0.7,3.7-1.4C818.9,745.1,713.7,740.9,665.7,683.9z"/>
	<path class="st0" d="M1214.1,389.6c-14.2-0.2-25.2-4.1-34.2-13.2c-14.8-15-14.1-37.4,1.6-51.3c17.6-15.7,46.3-15.7,63.5,0.5
		c10.1,9.5,14.4,21.3,10.4,35c-4.7,15.9-16.4,24.3-32,27.9C1219.8,389.3,1216.1,389.4,1214.1,389.6z"/>
	<path class="st0" d="M965.4,653.1c0.2,13.2-8.8,23-20.8,23c-14.2,0-26.6-13.4-26.6-28.6c0-12.9,8.4-22.2,20.4-22.4
		C952.8,624.9,965.2,637.7,965.4,653.1z"/>
	<path class="st0" d="M966.4,370.3c0.1,14.6-12.5,26.7-28,26.9c-13.1,0.2-23-8.8-23-20.9c0-13.7,13.2-26.2,28-26.5
		C956.9,349.5,966.3,357.9,966.4,370.3z"/>
	<path class="st0" d="M680.7,381.4c-0.1,12.7-9,22.3-20.7,22.4c-14.3,0.1-27-13.8-26.7-29.3c0.2-13,8.7-21.7,21-21.7
		C668.7,352.9,680.8,366,680.7,381.4z"/>
	<path class="st0" d="M654.8,678.7c-13.3,0.1-22.8-8.6-22.8-20.8c0-13.9,12.9-26.2,27.9-26.5c13.2-0.3,23,8.4,23.2,20.5
		C683.2,666.2,670.2,678.6,654.8,678.7z"/>
</g>
</svg>
